{"title":"Avicii-Speed.HDTV.720p-shadowCopy","uid":9593816,"size":67035637,"categoryP":"video","categoryS":"music_videos","magnet":"?xt=urn:btih:47b5801aa3139bc24feb9b33fc34c5327f6b4af9&amp;dn=Avicii-Speed.HDTV.720p-shadowCopy&amp;tr=udp%3A%2F%2Ftracker.openbittorrent.com%3A80&amp;tr=udp%3A%2F%2Fopen.demonii.com%3A1337&amp;tr=udp%3A%2F%2Ftracker.coppersurfer.tk%3A6969&amp;tr=udp%3A%2F%2Fexodus.desync.com%3A6969","seeders":1,"leechers":0,"uploader":"tlbslicer","files":2,"time":1391969825,"description":" &lt;a href=&quot;http://s12.postimg.org/6mjgjy2d9/vlcsnap_2014_02_09_19h09m06s169.png&quot; rel=&quot;nofollow&quot; target=&quot;_NEW&quot;&gt;http://s12.postimg.org/6mjgjy2d9/vlcsnap_2014_02_09_19h09m06s169.png&lt;/a&gt;\n &lt;a href=&quot;\nhttp://s12.postimg.org/b75myvm2l/vlcsnap_2014_02_09_19h09m19s20.png&quot; rel=&quot;nofollow&quot; target=&quot;_NEW&quot;&gt;\nhttp://s12.postimg.org/b75myvm2l/vlcsnap_2014_02_09_19h09m19s20.png&lt;/a&gt;\n\n\nAvicii-Speed.HDTV.720p-shadowCopy\n \nFormat                                   : MPEG-4\nFormat profile                           : Base Media\nCodec ID                                 : isom\nFile size                                : 63.9 MiB\nDuration                                 : 3mn 59s\nOverall bit rate mode                    : Variable\nOverall bit rate                         : 2 236 Kbps\nWriting application                      : Lavf54.63.104\n\nVideo\nID                                       : 1\nFormat                                   : AVC\nFormat/Info                              : Advanced Video Codec\nFormat profile                           : &lt;a class=&quot;__cf_email__&quot; href=&quot;/cdn-cgi/l/email-protection&quot; data-cfemail=&quot;e2aa8b858aa2aed1ccd0&quot;&gt;[email&amp;#160;protected]&lt;/a&gt;&lt;script cf-hash='f9e31' type=&quot;text/javascript&quot;&gt;\n/* &lt;![CDATA[ */!function(){try{var t=&quot;currentScript&quot;in document?document.currentScript:function(){for(var t=document.getElementsByTagName(&quot;script&quot;),e=t.length;e--;)if(t[e].getAttribute(&quot;cf-hash&quot;))return t[e]}();if(t&amp;&amp;t.previousSibling){var e,r,n,i,c=t.previousSibling,a=c.getAttribute(&quot;data-cfemail&quot;);if(a){for(e=&quot;&quot;,r=parseInt(a.substr(0,2),16),n=2;a.length-n;n+=2)i=parseInt(a.substr(n,2),16)^r,e+=String.fromCharCode(i);e=document.createTextNode(e),c.parentNode.replaceChild(e,c)}}}catch(u){}}();/* ]]&gt; */&lt;/script&gt;\nFormat settings, CABAC                   : Yes\nFormat settings, ReFrames                : 4 frames\nCodec ID                                 : avc1\nCodec ID/Info                            : Advanced Video Coding\nDuration                                 : 3mn 59s\nBit rate                                 : 2 097 Kbps\nWidth                                    : 1 280 pixels\nHeight                                   : 724 pixels\nDisplay aspect ratio                     : 16:9\nFrame rate mode                          : Constant\nFrame rate                               : 25.000 fps\nColor space                              : YUV\nChroma subsampling                       : 4:2:0\nBit depth                                : 8 bits\nScan type                                : Progressive\nBits/(Pixel*Frame)                       : 0.091\nStream size                              : 60.2 MiB (94%)\nWriting library                          : x264 core 123 r2189 35cf912\nEncoding settings                        : cabac=1 / ref=3 / deblock=1:0:0 / analyse=0x3:0x133 / me=hex / subme=7 / psy=1 / psy_rd=1.00:0.00 / mixed_ref=1 / me_range=16 / chroma_me=1 / trellis=1 / 8x8dct=1 / cqm=0 / deadzone=21,11 / fast_pskip=1 / chroma_qp_offset=-2 / threads=4 / sliced_threads=0 / nr=0 / decimate=1 / interlaced=0 / bluray_compat=0 / constrained_intra=0 / bframes=3 / b_pyramid=2 / b_adapt=1 / b_bias=0 / direct=1 / weightb=1 / open_gop=0 / weightp=2 / keyint=250 / keyint_min=25 / scenecut=40 / intra_refresh=0 / rc_lookahead=40 / rc=2pass / mbtree=1 / bitrate=2097 / ratetol=1.0 / qcomp=0.60 / qpmin=10 / qpmax=51 / qpstep=4 / cplxblur=20.0 / qblur=0.5 / ip_ratio=1.40 / aq=1:1.00\n\nAudio\nID                                       : 2\nFormat                                   : AAC\nFormat/Info                              : Advanced Audio Codec\nFormat profile                           : HE-AAC / LC\nCodec ID                                 : 40\nDuration                                 : 3mn 59s\nBit rate mode                            : Variable\nBit rate                                 : 127 Kbps\nMaximum bit rate                         : 128 Kbps\nChannel(s)                               : 2 channels\nChannel positions                        : Front: L R\nSampling rate                            : 48.0 KHz / 24.0 KHz\nCompression mode                         : Lossy\nStream size                              : 3.62 MiB (6%)\nLanguage                                 : English\n\n","torrent":{"xt":"urn:btih:47b5801aa3139bc24feb9b33fc34c5327f6b4af9","amp;dn":"Avicii-Speed.HDTV.720p-shadowCopy","amp;tr":["udp%3A%2F%2Ftracker.openbittorrent.com%3A80","udp%3A%2F%2Fopen.demonii.com%3A1337","udp%3A%2F%2Ftracker.coppersurfer.tk%3A6969","udp%3A%2F%2Fexodus.desync.com%3A6969"],"infoHash":"47b5801aa3139bc24feb9b33fc34c5327f6b4af9","infoHashBuffer":{"type":"Buffer","data":[71,181,128,26,163,19,155,194,79,235,155,51,252,52,197,50,127,107,74,249]},"announce":[],"urlList":[]}}